<svg width="15" height="15" viewBox="0 0 15 15" fill="none" xmlns="http://www.w3.org/2000/svg">
<path d="M7.50002 4.16666C7.61053 4.16666 7.71651 4.21056 7.79465 4.2887C7.87279 4.36684 7.91669 4.47282 7.91669 4.58332V7.08332H10.4167C10.5272 7.08332 10.6332 7.12722 10.7113 7.20536C10.7895 7.2835 10.8334 7.38948 10.8334 7.49999C10.8334 7.6105 10.7895 7.71648 10.7113 7.79462C10.6332 7.87276 10.5272 7.91666 10.4167 7.91666H7.91669V10.4167C7.91669 10.5272 7.87279 10.6331 7.79465 10.7113C7.71651 10.7894 7.61053 10.8333 7.50002 10.8333C7.38951 10.8333 7.28353 10.7894 7.20539 10.7113C7.12725 10.6331 7.08335 10.5272 7.08335 10.4167V7.91666H4.58335C4.47285 7.91666 4.36687 7.87276 4.28873 7.79462C4.21059 7.71648 4.16669 7.6105 4.16669 7.49999C4.16669 7.38948 4.21059 7.2835 4.28873 7.20536C4.36687 7.12722 4.47285 7.08332 4.58335 7.08332H7.08335V4.58332C7.08335 4.47282 7.12725 4.36684 7.20539 4.2887C7.28353 4.21056 7.38951 4.16666 7.50002 4.16666Z" fill="white"/>
</svg>
