<svg width="22" height="22" viewBox="0 0 22 22" fill="none" xmlns="http://www.w3.org/2000/svg">
<g clip-path="url(#clip0_17_42)">
<path d="M16.1453 14.2205C17.4767 12.4036 18.073 10.1511 17.8149 7.91353C17.5569 5.67594 16.4635 3.61829 14.7534 2.15226C13.0434 0.686219 10.8429 -0.0800925 8.59216 0.00663311C6.34141 0.0933587 4.20639 1.02673 2.61426 2.62C1.02212 4.21328 0.0902833 6.34896 0.00516828 8.59977C-0.0799467 10.8506 0.687939 13.0505 2.1552 14.7595C3.62246 16.4685 5.68089 17.5604 7.91866 17.8169C10.1564 18.0733 12.4085 17.4754 14.2244 16.1427H14.223C14.2643 16.1977 14.3083 16.25 14.3578 16.3008L19.6515 21.5946C19.9093 21.8526 20.2591 21.9976 20.6238 21.9977C20.9886 21.9979 21.3384 21.8531 21.5965 21.5953C21.8545 21.3374 21.9995 20.9877 21.9996 20.6229C21.9997 20.2582 21.855 19.9083 21.5971 19.6503L16.3034 14.3566C16.2542 14.3068 16.2014 14.2609 16.1453 14.2191V14.2205ZM16.5 8.93495C16.5 9.92807 16.3044 10.9115 15.9244 11.829C15.5443 12.7465 14.9873 13.5802 14.285 14.2824C13.5828 14.9847 12.7491 15.5417 11.8316 15.9218C10.914 16.3018 9.93064 16.4975 8.93751 16.4975C7.94439 16.4975 6.961 16.3018 6.04347 15.9218C5.12595 15.5417 4.29226 14.9847 3.59002 14.2824C2.88778 13.5802 2.33073 12.7465 1.95067 11.829C1.57062 10.9115 1.37501 9.92807 1.37501 8.93495C1.37501 6.92925 2.17178 5.0057 3.59002 3.58746C5.00826 2.16921 6.93181 1.37245 8.93751 1.37245C10.9432 1.37245 12.8668 2.16921 14.285 3.58746C15.7033 5.0057 16.5 6.92925 16.5 8.93495Z" fill="black"/>
</g>
<defs>
<clipPath id="clip0_17_42">
<rect width="22" height="22" fill="white"/>
</clipPath>
</defs>
</svg>
