<svg width="13" height="13" viewBox="0 0 13 13" fill="none" xmlns="http://www.w3.org/2000/svg">
<path d="M4.46875 4.46875C4.57649 4.46875 4.67983 4.51155 4.75601 4.58774C4.8322 4.66392 4.875 4.76726 4.875 4.875V9.75C4.875 9.85774 4.8322 9.96108 4.75601 10.0373C4.67983 10.1134 4.57649 10.1562 4.46875 10.1562C4.36101 10.1562 4.25767 10.1134 4.18149 10.0373C4.1053 9.96108 4.0625 9.85774 4.0625 9.75V4.875C4.0625 4.76726 4.1053 4.66392 4.18149 4.58774C4.25767 4.51155 4.36101 4.46875 4.46875 4.46875ZM6.5 4.46875C6.60774 4.46875 6.71108 4.51155 6.78726 4.58774C6.86345 4.66392 6.90625 4.76726 6.90625 4.875V9.75C6.90625 9.85774 6.86345 9.96108 6.78726 10.0373C6.71108 10.1134 6.60774 10.1562 6.5 10.1562C6.39226 10.1562 6.28892 10.1134 6.21274 10.0373C6.13655 9.96108 6.09375 9.85774 6.09375 9.75V4.875C6.09375 4.76726 6.13655 4.66392 6.21274 4.58774C6.28892 4.51155 6.39226 4.46875 6.5 4.46875ZM8.9375 4.875C8.9375 4.76726 8.8947 4.66392 8.81851 4.58774C8.74233 4.51155 8.63899 4.46875 8.53125 4.46875C8.42351 4.46875 8.32017 4.51155 8.24399 4.58774C8.1678 4.66392 8.125 4.76726 8.125 4.875V9.75C8.125 9.85774 8.1678 9.96108 8.24399 10.0373C8.32017 10.1134 8.42351 10.1562 8.53125 10.1562C8.63899 10.1562 8.74233 10.1134 8.81851 10.0373C8.8947 9.96108 8.9375 9.85774 8.9375 9.75V4.875Z" fill="white"/>
<path fill-rule="evenodd" clip-rule="evenodd" d="M11.7812 2.4375C11.7812 2.65299 11.6956 2.85965 11.5433 3.01202C11.3909 3.1644 11.1842 3.25 10.9688 3.25H10.5625V10.5625C10.5625 10.9935 10.3913 11.4068 10.0865 11.7115C9.7818 12.0163 9.36848 12.1875 8.9375 12.1875H4.0625C3.63152 12.1875 3.2182 12.0163 2.91345 11.7115C2.6087 11.4068 2.4375 10.9935 2.4375 10.5625V3.25H2.03125C1.81576 3.25 1.6091 3.1644 1.45673 3.01202C1.30435 2.85965 1.21875 2.65299 1.21875 2.4375V1.625C1.21875 1.40951 1.30435 1.20285 1.45673 1.05048C1.6091 0.898102 1.81576 0.8125 2.03125 0.8125H4.875C4.875 0.597012 4.9606 0.390349 5.11298 0.237976C5.26535 0.0856024 5.47201 0 5.6875 0L7.3125 0C7.52799 0 7.73465 0.0856024 7.88702 0.237976C8.0394 0.390349 8.125 0.597012 8.125 0.8125H10.9688C11.1842 0.8125 11.3909 0.898102 11.5433 1.05048C11.6956 1.20285 11.7812 1.40951 11.7812 1.625V2.4375ZM3.34588 3.25L3.25 3.29794V10.5625C3.25 10.778 3.3356 10.9847 3.48798 11.137C3.64035 11.2894 3.84701 11.375 4.0625 11.375H8.9375C9.15299 11.375 9.35965 11.2894 9.51202 11.137C9.6644 10.9847 9.75 10.778 9.75 10.5625V3.29794L9.65413 3.25H3.34588ZM2.03125 2.4375V1.625H10.9688V2.4375H2.03125Z" fill="white"/>
</svg>
